# ProBuilder 4.4.0
# https://unity3d.com/unity/features/worldbuilding/probuilder
# 16/10/2020 10:51:39

mtllib ./Canon_X30.mtl
o Canon X30

g Canon X30
v -3.248453E-09 0 0
v -0.109 0 0
v -3.248453E-09 0.084 0
v -0.109 0.084 0
v -0.109 0 -0.182
v -0.109 0.084 -0.182
v -3.248453E-09 0 -0.182
v -3.248453E-09 0.084 -0.182

vt 0.5 -0.5
vt -0.5 -0.5
vt 0.5 0.5
vt -0.5 0.5
vt 0.5 -0.5
vt 0.5 0.5
vt -0.5 -0.5
vt -0.5 0.5

vn 0 0 0.182
vn -0.109 0 0
vn 0 0 -0.182
vn 0.109 0 0
vn 0 0.084 0
vn 0 -0.084 0

usemtl plastic_black
f 3/3/1 4/4/1 2/2/1 1/1/1
f 4/6/2 6/4/2 5/2/2 2/5/2
f 6/6/3 8/8/3 7/7/3 5/5/3
f 8/6/4 3/4/4 1/2/4 7/5/4
f 8/7/5 6/5/5 4/6/5 3/8/5
f 1/3/6 2/4/6 5/2/6 7/1/6

g Cylinder
v -0.0545 0 0.0182
v -0.0545 0 -0.001799997
v -0.08278427 0.01171573 0.0182
v -0.08278427 0.01171573 -0.001799997
v -0.09449999 0.04 0.0182
v -0.09449999 0.04 -0.001799997
v -0.08278427 0.06828427 0.0182
v -0.08278427 0.06828427 -0.001799997
v -0.05449999 0.08 0.0182
v -0.05449999 0.08 -0.001799997
v -0.02621574 0.06828427 0.0182
v -0.02621574 0.06828427 -0.001799997
v -0.01450001 0.04 0.0182
v -0.01450001 0.04 -0.001799997
v -0.02621573 0.01171573 0.0182
v -0.02621573 0.01171573 -0.001799997
v -0.0545 0.04 0.0182
v -0.0545 0.04 -0.001799997

vt 0 0
vt 0 0.02
vt 0.03061467 0
vt 0.03061467 0.02
vt 0.02164784 0
vt 0.02164784 0.02
vt 0.05226251 0
vt 0.05226251 0.02
vt -0.03061467 0
vt -0.03061467 0.02
vt -0.05226252 0
vt -0.05226252 0.02
vt -0.02164784 0
vt -0.02164784 0.02
vt 0.04 0
vt 0.01171573 0.02828427
vt -0.04 0
vt -0.01171573 0.02828427
vt 0.04 0.04
vt -0.04 0.04
vt 0.06828427 0.02828427
vt -0.06828427 0.02828427
vt 0.08 -3.496911E-09
vt -0.08 -3.496911E-09
vt 0.06828427 -0.02828427
vt -0.06828427 -0.02828427
vt 0.04 -0.04
vt -0.04 -0.04
vt 0.01171573 -0.02828427
vt -0.01171573 -0.02828427

vn 8.064449E-08 -1 0
vn -0.7071066 -0.7071068 0
vn -0.9999998 0 0
vn -0.7071066 0.7071068 0
vn 6.451559E-08 1 0
vn 0.7071066 0.7071068 0
vn 0.9999998 1.61289E-08 0
vn 0.7071067 -0.7071067 0
vn 0 0 1
vn 0 0 -1

usemtl plastic_black
f 9/9/15 25/23/15 11/24/15
f 11/24/15 25/23/15 13/27/15
f 13/27/15 25/23/15 15/29/15
f 15/29/15 25/23/15 17/31/15
f 17/31/15 25/23/15 19/33/15
f 19/33/15 25/23/15 21/35/15
f 21/35/15 25/23/15 23/37/15
f 23/37/15 25/23/15 9/9/15
f 12/26/16 26/25/16 10/9/16
f 14/28/16 26/25/16 12/26/16
f 16/30/16 26/25/16 14/28/16
f 18/32/16 26/25/16 16/30/16
f 20/34/16 26/25/16 18/32/16
f 22/36/16 26/25/16 20/34/16
f 24/38/16 26/25/16 22/36/16
f 10/9/16 26/25/16 24/38/16
f 12/12/8 10/10/7 9/9/7
f 9/9/7 11/11/8 12/12/8
f 14/16/9 12/14/8 11/13/8
f 11/13/8 13/15/9 14/16/9
f 16/16/10 14/14/9 13/13/9
f 13/13/9 15/15/10 16/16/10
f 18/12/11 16/10/10 15/9/10
f 15/9/10 17/11/11 18/12/11
f 20/10/12 18/18/11 17/17/11
f 17/17/11 19/9/12 20/10/12
f 22/22/13 20/20/12 19/19/12
f 19/19/12 21/21/13 22/22/13
f 24/22/14 22/20/13 21/19/13
f 21/19/13 23/21/14 24/22/14
f 10/10/7 24/18/14 23/17/14
f 23/17/14 9/9/7 10/10/7

g Pipe
v -0.02621564 0.01171568 0.0682001
v -0.01449991 0.03999996 0.0682001
v -0.02621564 0.01171568 0.03820009
v -0.01449991 0.03999996 0.0382001
v -0.02449991 0.03999996 0.0682001
v -0.03328671 0.01878675 0.0682001
v -0.02449991 0.03999996 0.0382001
v -0.03328671 0.01878675 0.03820009
v -0.05449992 -5.155802E-08 0.0682001
v -0.05449992 -5.320861E-08 0.03820008
v -0.05449992 0.009999951 0.0682001
v -0.05449992 0.00999995 0.03820009
v -0.08278421 0.01171568 0.0682001
v -0.08278421 0.01171568 0.03820009
v -0.07571313 0.01878675 0.0682001
v -0.07571313 0.01878675 0.03820009
v -0.09449993 0.03999997 0.0682001
v -0.09449993 0.03999996 0.0382001
v -0.08449993 0.03999997 0.0682001
v -0.08449993 0.03999996 0.0382001
v -0.08278421 0.06828424 0.06820011
v -0.08278421 0.06828424 0.0382001
v -0.07571313 0.06121317 0.06820011
v -0.07571313 0.06121317 0.0382001
v -0.05449992 0.07999998 0.06820011
v -0.05449992 0.07999998 0.0382001
v -0.05449992 0.06999997 0.06820011
v -0.05449992 0.06999997 0.0382001
v -0.02621564 0.06828424 0.06820011
v -0.02621564 0.06828424 0.0382001
v -0.03328671 0.06121318 0.06820011
v -0.03328671 0.06121317 0.0382001
v -0.02621564 0.01171568 0.008200076
v -0.01449991 0.03999996 0.008200084
v -0.02449991 0.03999996 0.008200084
v -0.03328671 0.01878675 0.008200078
v -0.05449992 -5.48592E-08 0.008200074
v -0.05449992 0.009999949 0.008200076
v -0.08278421 0.01171568 0.008200076
v -0.07571313 0.01878675 0.008200078
v -0.09449993 0.03999996 0.008200084
v -0.08449993 0.03999996 0.008200084
v -0.08278421 0.06828424 0.008200091
v -0.07571313 0.06121317 0.008200089
v -0.05449992 0.07999997 0.008200094
v -0.05449992 0.06999997 0.008200091
v -0.02621564 0.06828424 0.008200091
v -0.03328671 0.06121317 0.008200089

vt 0.03061467 0
vt 0 0
vt 0.03061467 0.03
vt 0 0.03
vt -0.003826835 0
vt -0.02678784 0
vt -0.003826835 0.03
vt -0.02678784 0.03
vt 0.05226251 0
vt 0.02164784 0
vt 0.05226251 0.03
vt 0.02164784 0.03
vt -0.02547468 0
vt -0.04843568 0
vt -0.02547468 0.03
vt -0.04843568 0.03
vt -0.03061467 0
vt -0.03061467 0.03
vt 0.02678785 0
vt 0.003826845 0
vt 0.02678785 0.03
vt 0.003826845 0.03
vt -0.02164784 0
vt -0.05226252 0
vt -0.02164784 0.03
vt -0.05226252 0.03
vt 0.04843568 0
vt 0.02547467 0
vt 0.04843568 0.03
vt 0.02547467 0.03
vt 0.03061467 0.06
vt 0 0.06
vt -0.003826835 0.06
vt -0.02678784 0.06
vt 0.05226251 0.06
vt 0.02164784 0.06
vt -0.02547468 0.06
vt -0.04843568 0.06
vt -0.03061467 0.06
vt 0.02678785 0.06
vt 0.003826845 0.06
vt -0.02164784 0.06
vt -0.05226252 0.06
vt 0.04843568 0.06
vt 0.02547467 0.06
vt 0.01171573 0.02828427
vt 0.01 0
vt 0.0187868 0.0212132
vt -0.01171573 0.02828427
vt -0.0187868 0.0212132
vt -0.01 0
vt 0.04 0.04
vt 0.04 0.03
vt -0.04 0.04
vt -0.04 0.03
vt 0.06828427 0.02828427
vt 0.0612132 0.0212132
vt -0.06828427 0.02828427
vt -0.0612132 0.0212132
vt 0.08 -3.496911E-09
vt 0.07 -2.622683E-09
vt -0.08 -3.496911E-09
vt -0.07 -2.622683E-09
vt 0.06828427 -0.02828427
vt 0.0612132 -0.0212132
vt -0.06828427 -0.02828427
vt -0.0612132 -0.0212132
vt 0.04 -0.04
vt 0.04 -0.03
vt -0.04 -0.04
vt -0.04 -0.03
vt 0.01171573 -0.02828427
vt 0.0187868 -0.02121321
vt -0.01171573 -0.02828427
vt -0.0187868 -0.02121321

vn 0.9238799 -0.3826836 -9.88421E-08
vn -0.9238799 0.3826836 9.884211E-08
vn 0.3826836 -0.9238799 -2.386259E-07
vn -0.3826836 0.9238799 2.386259E-07
vn -0.3826835 -0.9238799 -2.386259E-07
vn 0.3826836 0.9238799 2.386259E-07
vn -0.92388 -0.3826835 -9.884207E-08
vn 0.9238799 0.3826836 9.884211E-08
vn 0 5.501968E-08 1
vn 0 -5.501968E-08 -1

usemtl plastic_black
f 29/41/17 30/42/17 28/40/17 27/39/17
f 33/45/18 34/46/18 32/44/18 31/43/18
f 36/49/19 29/50/19 27/48/19 35/47/19
f 34/53/20 38/54/20 37/52/20 32/51/20
f 40/49/21 36/50/21 35/48/21 39/47/21
f 38/53/22 42/54/22 41/52/22 37/51/22
f 44/41/23 40/42/23 39/40/23 43/39/23
f 42/45/24 46/46/24 45/44/24 41/43/24
f 48/42/18 44/56/18 43/55/18 47/40/18
f 46/59/17 50/60/17 49/58/17 45/57/17
f 52/63/20 48/64/20 47/62/20 51/61/20
f 50/67/19 54/68/19 53/66/19 49/65/19
f 56/63/22 52/64/22 51/62/22 55/61/22
f 54/67/21 58/68/21 57/66/21 53/65/21
f 30/42/24 56/56/24 55/55/24 28/40/24
f 58/59/23 33/60/23 31/58/23 57/57/23
f 59/69/17 60/70/17 30/42/17 29/41/17
f 61/71/18 62/72/18 34/46/18 33/45/18
f 63/73/19 59/74/19 29/50/19 36/49/19
f 62/75/20 64/76/20 38/54/20 34/53/20
f 65/73/21 63/74/21 36/50/21 40/49/21
f 64/75/22 66/76/22 42/54/22 38/53/22
f 67/69/23 65/70/23 40/42/23 44/41/23
f 66/71/24 68/72/24 46/46/24 42/45/24
f 69/70/18 67/77/18 44/56/18 48/42/18
f 68/78/17 70/79/17 50/60/17 46/59/17
f 71/80/20 69/81/20 48/64/20 52/63/20
f 70/82/19 72/83/19 54/68/19 50/67/19
f 73/80/22 71/81/22 52/64/22 56/63/22
f 72/82/21 74/83/21 58/68/21 54/67/21
f 60/70/24 73/77/24 56/56/24 30/42/24
f 74/78/23 61/79/23 33/60/23 58/59/23
f 31/85/25 32/86/25 27/84/25 28/40/25
f 62/88/26 61/89/26 60/40/26 59/87/26
f 32/86/25 37/91/25 35/90/25 27/84/25
f 64/93/26 62/88/26 59/87/26 63/92/26
f 37/91/25 41/95/25 39/94/25 35/90/25
f 66/97/26 64/93/26 63/92/26 65/96/26
f 41/95/25 45/99/25 43/98/25 39/94/25
f 68/101/26 66/97/26 65/96/26 67/100/26
f 45/99/25 49/103/25 47/102/25 43/98/25
f 70/105/26 68/101/26 67/100/26 69/104/26
f 49/103/25 53/107/25 51/106/25 47/102/25
f 72/109/26 70/105/26 69/104/26 71/108/26
f 53/107/25 57/111/25 55/110/25 51/106/25
f 74/113/26 72/109/26 71/108/26 73/112/26
f 57/111/25 31/85/25 28/40/25 55/110/25
f 61/89/26 74/113/26 73/112/26 60/40/26

g Arch
v -0.0218 0.084 -0.1729
v -0.0218 0.1273013 -0.1311568
v -0.08169012 0.084 -0.1729
v -0.08169012 0.1273013 -0.1311569
v -0.0218 0.118641 -0.1228082
v -0.0218 0.084 -0.1562027
v -0.08169012 0.118641 -0.1228082
v -0.08169012 0.084 -0.1562027
v -0.02180001 0.1273013 -0.04767057
v -0.08169013 0.1273013 -0.04767058
v -0.02180001 0.118641 -0.0560192
v -0.08169013 0.118641 -0.05601922
v -0.02180001 0.08399999 -0.005927435
v -0.08169013 0.08399999 -0.005927447
v -0.02180001 0.084 -0.02262469
v -0.08169013 0.084 -0.0226247

vt 0 0
vt 0 0.05
vt 0.1 0
vt 0.1 0.05
vt 0 0.045
vt 0 0.005000001
vt -0.1 0.045
vt -0.1 0.005000001
vt 0 0.1
vt 0.01 0.1
vt 0.01 0
vt -0.025 0
vt -0.075 0
vt -0.025 0.1
vt -0.075 0.1
vt 0.07 0
vt 0.03 0
vt 0.07 0.1
vt 0.03 0.1
vt 0 -0.05
vt -0.1 4.215072E-09
vt -0.1 -0.05
vt 0 -0.04500001
vt 0 -0.004999998
vt 0.1 -0.04500001
vt 0.1 -0.004999998
vt 0.09 0.1
vt 0.1 0.1
vt 0.09 0
vt 0.025 0.04330127
vt 0.03 0.03464102
vt -0.025 0.04330127
vt -0.03 0.03464102
vt -0.01 0
vt 0.075 0.04330127
vt 0.07 0.03464102
vt -0.075 0.04330127
vt -0.07 0.03464102
vt -0.09 -3.496911E-09

vn 1.032383E-07 0.5 -1.446025
vn -1.032383E-07 -0.5000001 1.446025
vn 0 -1 0
vn -8.881787E-15 1 1.244042E-07
vn -1.032383E-07 0.4999999 1.446025
vn 1.032383E-07 -0.5 -1.446025
vn -0.5989012 0 -1.192093E-07
vn 0.5989012 0 1.192093E-07

usemtl plastic_black
f 77/116/27 78/117/27 76/115/27 75/114/27
f 81/120/28 82/121/28 80/119/28 79/118/28
f 75/114/29 80/124/29 82/123/29 77/122/29
f 78/127/30 84/128/30 83/126/30 76/125/30
f 86/131/29 81/132/29 79/130/29 85/129/29
f 84/134/31 88/135/31 87/133/31 83/114/31
f 90/138/32 86/139/32 85/137/32 89/136/32
f 89/142/29 87/116/29 88/141/29 90/140/29
f 82/124/33 81/144/33 78/143/33 77/114/33
f 79/146/34 80/147/34 75/114/34 76/145/34
f 81/144/33 86/149/33 84/148/33 78/143/33
f 85/151/34 79/146/34 76/145/34 83/150/34
f 86/149/33 90/142/33 88/116/33 84/148/33
f 89/152/34 85/151/34 83/150/34 87/134/34

g Cube (1)
v -0.01635 0.042 -0.1456
v -0.05635 0.042 -0.1456
v -0.01635 0.082 -0.1456
v -0.05635 0.082 -0.1456
v -0.05635 0.042 -0.2156
v -0.05635 0.082 -0.2156
v -0.01635 0.042 -0.2156
v -0.01635 0.082 -0.2156

vt 0 0
vt -0.04 0
vt 0 0.04
vt -0.04 0.04
vt -0.07 0
vt -0.07 0.04
vt 0.04 0
vt 0.04 0.04
vt 0.07 0
vt 0.07 0.04
vt 0 -0.07
vt 0.04 -0.07
vt -0.04 -0.07

vn 0 0 1
vn -0.9999998 0 0
vn 0 0 -1
vn 0.9999998 0 0
vn 0 1 0
vn 0 -1 0

usemtl plastic_black
f 93/155/35 94/156/35 92/154/35 91/153/35
f 94/155/36 96/158/36 95/157/36 92/153/36
f 96/160/37 98/155/37 97/153/37 95/159/37
f 98/162/38 93/155/38 91/153/38 97/161/38
f 98/163/39 96/164/39 94/159/39 93/153/39
f 91/153/40 92/154/40 95/165/40 97/163/40

